<?xml version="1.0" encoding="UTF-8" standalone="no"?>
<!-- Created with Inkscape (http://www.inkscape.org/) -->

<svg
   width="481.31024mm"
   height="505.17459mm"
   viewBox="0 0 481.31024 505.17459"
   version="1.1"
   id="svg6857"
   inkscape:version="1.1.1 (1:1.1+202109281949+c3084ef5ed)"
   sodipodi:docname="yin-yang2.svg"
   xmlns:inkscape="http://www.inkscape.org/namespaces/inkscape"
   xmlns:sodipodi="http://sodipodi.sourceforge.net/DTD/sodipodi-0.dtd"
   xmlns="http://www.w3.org/2000/svg"
   xmlns:svg="http://www.w3.org/2000/svg">
  <sodipodi:namedview
     id="namedview6859"
     pagecolor="#ffffff"
     bordercolor="#111111"
     borderopacity="1"
     inkscape:pageshadow="0"
     inkscape:pageopacity="0"
     inkscape:pagecheckerboard="1"
     inkscape:document-units="mm"
     showgrid="false"
     inkscape:snap-bbox="true"
     inkscape:bbox-paths="true"
     inkscape:bbox-nodes="true"
     inkscape:snap-bbox-edge-midpoints="true"
     inkscape:snap-bbox-midpoints="true"
     inkscape:zoom="0.21638033"
     inkscape:cx="293.46475"
     inkscape:cy="1171.5483"
     inkscape:window-width="1600"
     inkscape:window-height="818"
     inkscape:window-x="0"
     inkscape:window-y="28"
     inkscape:window-maximized="1"
     inkscape:current-layer="g1035" />
  <defs
     id="defs6854" />
  <g
     inkscape:label="Capa 1"
     inkscape:groupmode="layer"
     id="layer1"
     transform="translate(568.37486,17.381841)">
    <g
       id="g1105">
      <rect
         style="fill:#008080;stroke:#000000;stroke-width:1.33773;stroke-linecap:round;stroke-linejoin:round"
         id="rect885"
         width="479.9725"
         height="503.83685"
         x="-567.70599"
         y="-16.712976" />
      <g
         id="g1035"
         transform="translate(-516.97152,-4.2073917)"
         style="stroke:none">
        <path
           id="circle7294"
           style="opacity:1;vector-effect:none;fill:#ffffff;fill-opacity:1;fill-rule:evenodd;stroke:none;stroke-width:2.08966;stroke-linecap:butt;stroke-linejoin:miter;stroke-miterlimit:4;stroke-dasharray:none;stroke-dashoffset:0;stroke-opacity:1"
           d="M 189.25205,39.412842 A 200,200 0 0 0 173.73362,40.0712 h 10.81122 V 438.75436 H 173.7331 A 200,200 0 0 0 189.25205,439.4127 200,200 0 0 0 389.25171,239.41303 200,200 0 0 0 189.25205,39.412842 Z M -10.089786,223.8946 a 200,200 0 0 0 -0.658357,15.51843 200,200 0 0 0 0.658357,15.51792 z" />
        <path
           id="path6940"
           style="opacity:1;vector-effect:none;fill:#000000;fill-opacity:1;fill-rule:evenodd;stroke:none;stroke-width:2.08966;stroke-linecap:butt;stroke-linejoin:miter;stroke-miterlimit:4;stroke-dasharray:none;stroke-dashoffset:0;stroke-opacity:1"
           d="M 189.25205,39.412842 A 200,200 0 0 0 -10.748147,239.41303 200,200 0 0 0 189.25205,439.4127 200,200 0 0 0 204.77048,438.75436 H 193.95873 V 40.0712 h 11.3466 A 200,200 0 0 0 189.25205,39.412842 Z M 388.59337,223.35613 v 31.57482 a 200,200 0 0 0 0.65834,-15.51792 200,200 0 0 0 -0.65834,-16.0569 z" />
        <circle
           style="opacity:1;vector-effect:none;fill:#ffffff;fill-opacity:1;fill-rule:evenodd;stroke:none;stroke-width:1.04483;stroke-linecap:butt;stroke-linejoin:miter;stroke-miterlimit:4;stroke-dasharray:none;stroke-dashoffset:0;stroke-opacity:1"
           id="circle6982"
           cx="189.25179"
           cy="139.41284"
           r="100" />
        <circle
           style="opacity:1;vector-effect:none;fill:#000000;fill-opacity:1;fill-rule:evenodd;stroke:none;stroke-width:1.04483;stroke-linecap:butt;stroke-linejoin:miter;stroke-miterlimit:4;stroke-dasharray:none;stroke-dashoffset:0;stroke-opacity:1"
           id="circle7106"
           cx="189.25179"
           cy="339.41284"
           r="100" />
        <circle
           style="opacity:1;vector-effect:none;fill:#ffffff;fill-opacity:1;fill-rule:evenodd;stroke:#ffffff;stroke-width:0.208966;stroke-linecap:butt;stroke-linejoin:miter;stroke-miterlimit:4;stroke-dasharray:none;stroke-dashoffset:0;stroke-opacity:1"
           id="circle7365"
           cx="189.25179"
           cy="334.41284"
           r="20" />
        <circle
           style="opacity:1;vector-effect:none;fill:#000000;fill-opacity:1;fill-rule:evenodd;stroke:none;stroke-width:0.208966;stroke-linecap:butt;stroke-linejoin:miter;stroke-miterlimit:4;stroke-dasharray:none;stroke-dashoffset:0;stroke-opacity:1"
           id="circle7367"
           cx="189.25179"
           cy="134.41284"
           r="20" />
      </g>
    </g>
  </g>
</svg>
