<?xml version="1.0" encoding="UTF-8" standalone="no"?>
<!-- Created with Inkscape (http://www.inkscape.org/) -->

<svg
   width="12332.504mm"
   height="576.02863mm"
   viewBox="0 0 12332.504 576.02863"
   version="1.1"
   id="svg5"
   inkscape:version="1.1.1 (1:1.1+202109281949+c3084ef5ed)"
   sodipodi:docname="alphabeth.svg"
   xmlns:inkscape="http://www.inkscape.org/namespaces/inkscape"
   xmlns:sodipodi="http://sodipodi.sourceforge.net/DTD/sodipodi-0.dtd"
   xmlns="http://www.w3.org/2000/svg"
   xmlns:svg="http://www.w3.org/2000/svg">
  <sodipodi:namedview
     id="namedview7"
     pagecolor="#ffffff"
     bordercolor="#111111"
     borderopacity="1"
     inkscape:pageshadow="0"
     inkscape:pageopacity="0"
     inkscape:pagecheckerboard="1"
     inkscape:document-units="px"
     showgrid="false"
     showborder="false"
     inkscape:zoom="0.02"
     inkscape:cx="25875"
     inkscape:cy="925"
     inkscape:window-width="1600"
     inkscape:window-height="818"
     inkscape:window-x="0"
     inkscape:window-y="28"
     inkscape:window-maximized="1"
     inkscape:current-layer="layer1"
     showguides="true"
     inkscape:snap-bbox="true"
     inkscape:snap-smooth-nodes="true"
     inkscape:guide-bbox="true">
    <sodipodi:guide
       position="160.93371,448.94712"
       orientation="0,-1"
       id="guide3801" />
    <sodipodi:guide
       position="160.93371,127.08188"
       orientation="0,-1"
       id="guide3803" />
    <sodipodi:guide
       position="649.62059,576.02851"
       orientation="0,-1"
       id="guide5063" />
    <sodipodi:guide
       position="1215.2241,0.00023822042"
       orientation="0,-1"
       id="guide5161" />
  </sodipodi:namedview>
  <defs
     id="defs2" />
  <g
     inkscape:label="Capa 1"
     inkscape:groupmode="layer"
     id="layer1"
     transform="translate(-430.03112,-72.630472)">
    <path
       id="path3619"
       style="color:#000000;opacity:1;fill:#000000;fill-opacity:0.999913;fill-rule:evenodd;stroke-width:3.77953;-inkscape-stroke:none"
       d="m 2233.5684,754.81641 c -334.5657,0 -608.2539,273.68829 -608.2539,608.25389 0,334.5656 273.6882,608.2461 608.2539,608.2461 142.6602,0 274.2284,-49.7889 378.2519,-132.8125 v 132.8125 h 230 v -608.2461 c 0,-334.5656 -273.6863,-608.25389 -608.2519,-608.25389 z m 0,229.99804 c 210.2645,0 378.248,167.99145 378.248,378.25585 0,210.2645 -167.9835,378.2481 -378.248,378.2481 -210.2645,0 -378.2559,-167.9836 -378.2559,-378.2481 0,-210.2644 167.9914,-378.25585 378.2559,-378.25585 z m 608.0019,395.19335 c -0.048,1.748 -0.1359,3.486 -0.1992,5.2305 0.063,-1.7444 0.1508,-3.4825 0.1992,-5.2305 z m -0.7051,16.7442 c -0.1177,2.1297 -0.2664,4.2509 -0.4062,6.375 0.1398,-2.1239 0.2886,-4.2455 0.4062,-6.375 z m -1.1738,16.8203 c -0.1797,2.1601 -0.3756,4.3148 -0.5781,6.4687 0.2024,-2.1537 0.3984,-4.3087 0.5781,-6.4687 z m -1.6309,16.7089 c -0.2407,2.1648 -0.4824,4.3284 -0.746,6.4864 0.2635,-2.1577 0.5054,-4.3219 0.746,-6.4864 z m -2.125,16.9043 c -0.2775,1.9838 -0.541,3.9716 -0.8378,5.9493 0.2967,-1.9776 0.5604,-3.9656 0.8378,-5.9493 z m -2.7832,17.9532 c -0.2374,1.3903 -0.4502,2.7885 -0.6972,4.1758 0.2469,-1.3874 0.4598,-2.7854 0.6972,-4.1758 z m -7.3769,36.5019 c -0.3449,1.4655 -0.7187,2.9194 -1.0742,4.3809 0.3554,-1.4615 0.7294,-2.9154 1.0742,-4.3809 z m -3.9746,15.875 c -0.4614,1.7461 -0.9453,3.4827 -1.4219,5.2227 0.4765,-1.74 0.9606,-3.4766 1.4219,-5.2227 z m -4.418,15.8106 c -0.5238,1.7838 -1.0578,3.5627 -1.5976,5.3398 0.5395,-1.7768 1.074,-3.5563 1.5976,-5.3398 z m -4.9121,15.8984 c -0.5316,1.641 -1.0602,3.283 -1.6055,4.918 0.5451,-1.635 1.074,-3.277 1.6055,-4.918 z m -5.5312,16.2813 c -0.4654,1.3078 -0.9166,2.622 -1.3907,3.9257 0.474,-1.3038 0.9254,-2.6178 1.3907,-3.9257 z m -6.7325,18.0742 c -0.1135,0.2893 -0.22,0.582 -0.334,0.8711 0.1139,-0.2891 0.2206,-0.5818 0.334,-0.8711 z m -13.3144,31.3203 c -0.4175,0.9102 -0.8516,1.811 -1.2735,2.7187 0.4218,-0.9077 0.8561,-1.8086 1.2735,-2.7187 z m -6.9766,14.6699 c -0.56,1.1393 -1.1323,2.271 -1.6992,3.4063 0.5667,-1.1353 1.1394,-2.267 1.6992,-3.4063 z m -7.4551,14.6485 c -0.5892,1.1211 -1.1813,2.2403 -1.7773,3.3574 0.5959,-1.1171 1.1882,-2.2363 1.7773,-3.3574 z m -8.0449,14.8066 c -0.4991,0.8891 -0.9926,1.7816 -1.4961,2.668 0.5035,-0.8865 0.997,-1.7788 1.4961,-2.668 z m -8.918,15.3769 c -0.2327,0.3877 -0.4597,0.779 -0.6933,1.1661 0.2335,-0.3871 0.4607,-0.7784 0.6933,-1.1661 z m -28.2011,42.8145 c -0.1578,0.2189 -0.3185,0.4356 -0.4766,0.6543 0.1581,-0.2188 0.3188,-0.4353 0.4766,-0.6543 z m -9.6504,13.0137 c -0.4108,0.5394 -0.8258,1.0752 -1.2383,1.6133 0.4124,-0.538 0.8276,-1.0739 1.2383,-1.6133 z m -10.1777,12.9961 c -0.4329,0.5378 -0.8662,1.075 -1.3008,1.6113 0.4345,-0.5363 0.868,-1.0736 1.3008,-1.6113 z m -10.7891,13.0371 c -0.3129,0.3676 -0.6218,0.7386 -0.9356,1.1054 0.3138,-0.3669 0.6227,-0.7378 0.9356,-1.1054 z m -58.916,60.3281 c -0.2378,0.2122 -0.4768,0.4229 -0.7149,0.6348 0.2381,-0.2119 0.4771,-0.4226 0.7149,-0.6348 z m -12.4766,10.8359 c -0.303,0.2563 -0.6047,0.5139 -0.9082,0.7696 0.3035,-0.2557 0.6052,-0.5134 0.9082,-0.7696 z"
       transform="scale(0.26458333)" />
    <path
       id="path4915"
       style="color:#000000;opacity:1;fill:#000000;fill-opacity:0.999913;fill-rule:evenodd;stroke-width:1;-inkscape-stroke:none"
       d="m 1179.7308,521.57761 c 88.5206,0 160.9339,-72.41336 160.9339,-160.93384 0,-88.52048 -72.4133,-160.93178 -160.9339,-160.93178 -37.7455,0 -72.5562,13.17332 -100.0791,35.13998 V 72.630603 h -60.8542 V 360.64377 c 0,88.52048 72.4129,160.93384 160.9333,160.93384 z m 0,-60.85365 c -55.6324,0 -100.0781,-44.44773 -100.0781,-100.08019 0,-55.63248 44.4457,-100.07814 100.0781,-100.07814 55.6325,0 100.0803,44.44566 100.0803,100.07814 0,55.63246 -44.4478,100.08019 -100.0803,100.08019 z M 1018.8637,356.16239 c 0.013,-0.46249 0.036,-0.92234 0.053,-1.3839 -0.017,0.46154 -0.04,0.92141 -0.053,1.3839 z m 0.1865,-4.43023 c 0.031,-0.56349 0.071,-1.12472 0.1075,-1.68672 -0.037,0.56195 -0.076,1.12329 -0.1075,1.68672 z m 0.3106,-4.45037 c 0.048,-0.57153 0.099,-1.14163 0.153,-1.71151 -0.054,0.56983 -0.1054,1.14001 -0.153,1.71151 z m 0.4315,-4.4209 c 0.064,-0.57277 0.1276,-1.14522 0.1974,-1.71619 -0.07,0.57089 -0.1337,1.1435 -0.1974,1.71619 z m 0.5623,-4.4726 c 0.073,-0.52488 0.1431,-1.05082 0.2216,-1.57408 -0.079,0.52324 -0.1483,1.04923 -0.2216,1.57408 z m 0.7363,-4.75011 c 0.063,-0.36785 0.1192,-0.7378 0.1845,-1.10485 -0.065,0.36708 -0.1216,0.73697 -0.1845,1.10485 z m 1.9518,-9.6578 c 0.091,-0.38775 0.1902,-0.77242 0.2843,-1.15911 -0.094,0.38669 -0.193,0.77136 -0.2843,1.15911 z m 1.0517,-4.20026 c 0.122,-0.46199 0.2501,-0.92146 0.3762,-1.38184 -0.1261,0.46038 -0.2542,0.91985 -0.3762,1.38184 z m 1.1689,-4.18322 c 0.1386,-0.47196 0.2799,-0.94263 0.4227,-1.41282 -0.1428,0.47011 -0.2842,0.94094 -0.4227,1.41282 z m 1.2996,-4.20645 c 0.1407,-0.43418 0.2806,-0.86863 0.4248,-1.30122 -0.1442,0.43259 -0.2841,0.86704 -0.4248,1.30122 z m 1.4635,-4.30776 c 0.1231,-0.34602 0.2425,-0.69374 0.368,-1.03868 -0.1254,0.34497 -0.2449,0.69263 -0.368,1.03868 z m 1.7813,-4.78213 c 0.03,-0.0765 0.058,-0.15399 0.088,-0.23048 -0.03,0.0765 -0.058,0.15393 -0.088,0.23048 z m 3.5228,-8.28683 c 0.1105,-0.24083 0.2253,-0.47916 0.3369,-0.71933 -0.1116,0.24017 -0.2265,0.47853 -0.3369,0.71933 z m 1.8459,-3.88141 c 0.1481,-0.30144 0.2996,-0.60087 0.4496,-0.90126 -0.15,0.30039 -0.3015,0.59982 -0.4496,0.90126 z m 1.9725,-3.87575 c 0.1559,-0.29663 0.3125,-0.59275 0.4702,-0.88832 -0.1576,0.29557 -0.3144,0.59169 -0.4702,0.88832 z m 2.1285,-3.91758 c 0.1321,-0.23524 0.2626,-0.47139 0.3959,-0.70591 -0.1333,0.23455 -0.2638,0.47064 -0.3959,0.70591 z m 2.3596,-4.06847 c 0.062,-0.10258 0.1216,-0.20612 0.1834,-0.30854 -0.062,0.10242 -0.1219,0.20596 -0.1834,0.30854 z m 7.4615,-11.32801 c 0.042,-0.0579 0.084,-0.11525 0.1261,-0.17311 -0.042,0.0579 -0.084,0.11517 -0.1261,0.17311 z m 2.5534,-3.44321 c 0.1086,-0.14271 0.2184,-0.28448 0.3276,-0.42685 -0.1091,0.14235 -0.219,0.28414 -0.3276,0.42685 z m 2.6928,-3.43855 c 0.1145,-0.14229 0.2292,-0.28442 0.3442,-0.42632 -0.115,0.1419 -0.2297,0.28406 -0.3442,0.42632 z m 2.8546,-3.4494 c 0.083,-0.0973 0.1645,-0.19542 0.2476,-0.29247 -0.083,0.0971 -0.1648,0.19521 -0.2476,0.29247 z m 15.5882,-15.96181 c 0.063,-0.0561 0.1262,-0.11189 0.1892,-0.16795 -0.063,0.0561 -0.1263,0.11181 -0.1892,0.16795 z m 3.3011,-2.86699 c 0.08,-0.0678 0.16,-0.13597 0.2403,-0.20363 -0.08,0.0677 -0.1601,0.13584 -0.2403,0.20363 z"
       sodipodi:nodetypes="ssscccsssssssccccccccccccccccccccccccccccccccccccccccccccccccccccccccccccccccccccc" />
    <path
       id="path5179"
       style="color:#000000;fill:#000000;fill-opacity:0.996246;fill-rule:evenodd;stroke-width:3.77953;-inkscape-stroke:none"
       d="m 6573.6367,754.81641 c -334.5656,0 -608.2539,273.68829 -608.2539,608.25389 0,334.5656 273.6883,608.2461 608.2539,608.2461 167.7205,0 320.132,-68.7888 430.4434,-179.5371 l -161.625,-161.625 c -68.3443,68.7914 -163.2409,111.1641 -268.8184,111.1641 -210.2642,0 -378.2558,-167.9836 -378.2558,-378.2481 0,-210.2644 167.9916,-378.25585 378.2558,-378.25585 105.5765,0 200.4722,42.37395 268.8164,111.16605 l 161.625,-161.62503 C 6893.7668,823.60587 6741.3567,754.81641 6573.6367,754.81641 Z"
       transform="scale(0.26458333)" />
    <path
       id="path5981"
       style="color:#000000;opacity:1;fill:#000000;fill-opacity:0.999913;fill-rule:evenodd;stroke-width:1;-inkscape-stroke:none"
       d="m 2192.5369,521.57761 c -88.5206,0 -160.9339,-72.41336 -160.9339,-160.93384 0,-88.52048 72.4133,-160.93178 160.9339,-160.93178 37.7455,0 72.5562,13.17332 100.0791,35.13998 V 72.630603 h 60.8542 V 360.64377 c 0,88.52048 -72.4129,160.93384 -160.9333,160.93384 z m 0,-60.85365 c 55.6324,0 100.0781,-44.44773 100.0781,-100.08019 0,-55.63248 -44.4457,-100.07814 -100.0781,-100.07814 -55.6325,0 -100.0803,44.44566 -100.0803,100.07814 0,55.63246 44.4478,100.08019 100.0803,100.08019 z M 2353.404,356.16239 c -0.013,-0.46249 -0.036,-0.92234 -0.053,-1.3839 0.017,0.46154 0.04,0.92141 0.053,1.3839 z m -0.1865,-4.43023 c -0.031,-0.56349 -0.071,-1.12472 -0.1075,-1.68672 0.037,0.56195 0.076,1.12329 0.1075,1.68672 z m -0.3106,-4.45037 c -0.048,-0.57153 -0.099,-1.14163 -0.153,-1.71151 0.054,0.56983 0.1054,1.14001 0.153,1.71151 z m -0.4315,-4.4209 c -0.064,-0.57277 -0.1276,-1.14522 -0.1974,-1.71619 0.07,0.57089 0.1337,1.1435 0.1974,1.71619 z m -0.5623,-4.4726 c -0.073,-0.52488 -0.1431,-1.05082 -0.2216,-1.57408 0.079,0.52324 0.1483,1.04923 0.2216,1.57408 z m -0.7363,-4.75011 c -0.063,-0.36785 -0.1192,-0.7378 -0.1845,-1.10485 0.065,0.36708 0.1216,0.73697 0.1845,1.10485 z m -1.9518,-9.6578 c -0.091,-0.38775 -0.1902,-0.77242 -0.2843,-1.15911 0.094,0.38669 0.193,0.77136 0.2843,1.15911 z m -1.0517,-4.20026 c -0.122,-0.46199 -0.2501,-0.92146 -0.3762,-1.38184 0.1261,0.46038 0.2542,0.91985 0.3762,1.38184 z m -1.1689,-4.18322 c -0.1386,-0.47196 -0.2799,-0.94263 -0.4227,-1.41282 0.1428,0.47011 0.2842,0.94094 0.4227,1.41282 z m -1.2996,-4.20645 c -0.1407,-0.43418 -0.2806,-0.86863 -0.4248,-1.30122 0.1442,0.43259 0.2841,0.86704 0.4248,1.30122 z m -1.4635,-4.30776 c -0.1231,-0.34602 -0.2425,-0.69374 -0.368,-1.03868 0.1254,0.34497 0.2449,0.69263 0.368,1.03868 z m -1.7813,-4.78213 c -0.03,-0.0765 -0.058,-0.15399 -0.088,-0.23048 0.03,0.0765 0.058,0.15393 0.088,0.23048 z m -3.5228,-8.28683 c -0.1105,-0.24083 -0.2253,-0.47916 -0.3369,-0.71933 0.1116,0.24017 0.2265,0.47853 0.3369,0.71933 z m -1.8459,-3.88141 c -0.1481,-0.30144 -0.2996,-0.60087 -0.4496,-0.90126 0.15,0.30039 0.3015,0.59982 0.4496,0.90126 z m -1.9725,-3.87575 c -0.1559,-0.29663 -0.3125,-0.59275 -0.4702,-0.88832 0.1576,0.29557 0.3144,0.59169 0.4702,0.88832 z m -2.1285,-3.91758 c -0.1321,-0.23524 -0.2626,-0.47139 -0.3959,-0.70591 0.1333,0.23455 0.2638,0.47064 0.3959,0.70591 z m -2.3596,-4.06847 c -0.062,-0.10258 -0.1216,-0.20612 -0.1834,-0.30854 0.062,0.10242 0.1219,0.20596 0.1834,0.30854 z m -7.4615,-11.32801 c -0.042,-0.0579 -0.084,-0.11525 -0.1261,-0.17311 0.042,0.0579 0.084,0.11517 0.1261,0.17311 z m -2.5534,-3.44321 c -0.1086,-0.14271 -0.2184,-0.28448 -0.3276,-0.42685 0.1091,0.14235 0.219,0.28414 0.3276,0.42685 z m -2.6928,-3.43855 c -0.1145,-0.14229 -0.2292,-0.28442 -0.3442,-0.42632 0.115,0.1419 0.2297,0.28406 0.3442,0.42632 z m -2.8546,-3.4494 c -0.083,-0.0973 -0.1645,-0.19542 -0.2476,-0.29247 0.083,0.0971 0.1648,0.19521 0.2476,0.29247 z m -15.5882,-15.96181 c -0.063,-0.0561 -0.1262,-0.11189 -0.1892,-0.16795 0.063,0.0561 0.1263,0.11181 0.1892,0.16795 z m -3.3011,-2.86699 c -0.08,-0.0678 -0.16,-0.13597 -0.2403,-0.20363 0.08,0.0677 0.1601,0.13584 0.2403,0.20363 z"
       sodipodi:nodetypes="ssscccsssssssccccccccccccccccccccccccccccccccccccccccccccccccccccccccccccccccccccc" />
    <path
       id="path6034"
       style="opacity:1;fill-opacity:0.999003;stroke-width:60.8542;stroke-linecap:square;stroke-linejoin:round;paint-order:stroke fill markers;stop-color:#000000"
       d="m 2727.9689,199.71199 c -87.1992,0 -158.766,70.26846 -160.8831,156.98163 -0.033,1.3136 -0.051,2.63091 -0.051,3.95221 0,4.77163 0.228,9.49129 0.648,14.1578 -0.01,-0.10318 -0.026,-0.20423 -0.035,-0.30747 0.01,0.1193 0.029,0.23627 0.039,0.35552 0.1923,2.12955 0.4272,4.24694 0.7023,6.3526 0.069,0.53213 0.1343,1.0647 0.2082,1.59525 -0.013,-0.0906 -0.019,-0.18323 -0.032,-0.2739 0.022,0.15997 0.042,0.32075 0.065,0.48059 -0.01,-0.0693 -0.023,-0.13737 -0.033,-0.20669 0.011,0.0791 0.026,0.15705 0.037,0.23614 0.253,1.77818 0.5367,3.54674 0.8465,5.30667 0.1416,0.80758 0.285,1.61393 0.4387,2.41741 0.02,0.10375 0.037,0.20847 0.057,0.31213 h 0.01 c 14.3274,74.09545 79.8625,130.50573 157.9836,130.50573 35.981,0 69.296,-11.96919 96.1721,-32.11586 l -43.5232,-43.52293 c -15.2572,9.38062 -33.27,14.78513 -52.6489,14.78513 -45.0043,0 -82.6841,-29.08771 -95.4406,-69.65207 h 253.4321 c 1.9071,-9.86279 2.9419,-20.02737 2.9419,-30.42605 0,-1.31783 -0.017,-2.6317 -0.05,-3.94187 -2e-4,-0.003 0,-0.005 0,-0.008 -0.03,-1.22505 -0.078,-2.44554 -0.1359,-3.66387 -6e-4,-0.009 -6e-4,-0.019 0,-0.0284 0,-0.0395 0,-0.0794 0,-0.11886 -3e-4,-0.002 0,-0.004 0,-0.006 -4.0876,-84.94977 -74.8252,-153.1674 -160.7418,-153.1674 z m 0,60.85364 c 45.0033,0 82.681,29.08834 95.4376,69.65209 h -190.8772 c 12.7571,-40.56375 50.4361,-69.65209 95.4396,-69.65209 z m 163.6805,78.38487 c -0.015,2.26857 -0.08,4.52528 -0.1881,6.7717 0.1106,-2.24552 0.1741,-4.50292 0.1881,-6.7717 z m -3.92,2.48719 c 0.3074,2.52008 0.5566,5.05786 0.745,7.61143 -0.1884,-2.55357 -0.4376,-5.09135 -0.745,-7.61143 z" />
    <path
       id="path6539"
       style="opacity:1;fill-opacity:0.999003;stroke-width:60.8542;stroke-linecap:square;stroke-linejoin:round;paint-order:stroke fill markers;stop-color:#000000"
       d="m 3208.4929,72.630472 c -88.5203,0 -160.9336,72.412238 -160.9339,160.932288 h 0.295 v 288.01446 h 60.8542 l -5e-4,-191.35989 99.7852,-5.1e-4 v -60.85366 h -99.7852 v -35.8004 h -0.2951 c 6e-4,-55.63201 44.4479,-100.07864 100.0803,-100.07864 z" />
    <path
       id="path7457"
       style="color:#000000;opacity:1;fill:#000000;fill-opacity:0.762164;fill-rule:evenodd;stroke-width:3.77953;-inkscape-stroke:none"
       d="m 13458.43,754.81641 c -334.566,0 -608.254,273.68829 -608.254,608.25389 0,334.5656 273.688,608.2461 608.254,608.2461 142.66,0 274.228,-49.7889 378.252,-132.8125 v 4.8731 h -1.252 c 0,210.2623 -167.993,378.25 -378.256,378.25 v 229.998 c 334.564,0 608.252,-273.6843 608.254,-608.248 l 1.254,-480.3067 c 0.873,-334.5644 -273.687,-608.25389 -608.252,-608.25389 z m 0,229.99804 c 210.264,0 378.248,167.99145 378.248,378.25585 0,210.2645 -167.984,378.2481 -378.248,378.2481 -210.265,0 -378.256,-167.9836 -378.256,-378.2481 0,-210.2644 167.991,-378.25585 378.256,-378.25585 z"
       transform="scale(0.26458333)" />
    <path
       id="path7930"
       style="opacity:1;fill-opacity:0.999003;stroke-width:230;stroke-linecap:square;stroke-linejoin:round;paint-order:stroke fill markers;stop-color:#000000"
       d="M 14842.604,274.50977 V 1341.4648 c -0.254,7.174 -0.43,14.3666 -0.43,21.5997 h 0.43 v 608.2519 h 230 v -626.2793 c 9.285,-201.7533 173.607,-360.22265 377.824,-360.22265 210.263,0 378.246,167.98745 378.248,378.25005 v 0 608.2519 h 230 v -608.2519 c 0,-334.5639 -273.688,-608.24809 -608.252,-608.24809 -142.464,0 -273.868,49.65129 -377.824,132.4707 V 274.50977 Z"
       transform="scale(0.26458333)" />
    <path
       id="path8230"
       style="fill:#000000;fill-opacity:0.999003;stroke-width:230;stroke-linecap:square;stroke-linejoin:round;paint-order:stroke fill markers;stop-color:#000000"
       d="m 16916.605,412.20898 a 115,115 0 0 0 -115,115 115,115 0 0 0 115,115 115,115 0 0 0 115,-115 115,115 0 0 0 -115,-115 z m -115,342.60743 V 1971.3164 h 230 V 754.81641 Z"
       transform="scale(0.26458333)" />
    <path
       id="path8796"
       style="opacity:1;fill:#000000;fill-opacity:0.999003;stroke-width:230;stroke-linecap:square;stroke-linejoin:round;paint-order:stroke fill markers;stop-color:#000000"
       d="m 18360.053,412.20898 a 115,115 0 0 0 -115,115 115,115 0 0 0 115,115 115,115 0 0 0 115,-115 115,115 0 0 0 -115,-115 z m -108.504,342.60743 0.392,1088.56059 c 0,210.2622 -167.992,378.25 -378.255,378.25 v 229.998 c 334.564,0 608.252,-273.6844 608.253,-608.248 l -0.39,-1088.56059 z"
       transform="scale(0.26458333)" />
    <path
       id="path9295"
       style="opacity:1;fill-opacity:0.999003;stroke-width:60.8541;stroke-linecap:square;stroke-linejoin:round;paint-order:stroke fill markers;stop-color:#000000"
       d="m 5121.9109,72.630604 h 60.8542 V 521.57722 h -60.8542 z" />
    <path
       id="path9297"
       style="color:#000000;fill:#000000;fill-opacity:1;fill-rule:evenodd;stroke-width:3.77953;-inkscape-stroke:none"
       d="m 21167.482,754.81445 v 0.002 c -142.66,0 -274.228,49.78957 -378.252,132.81445 V 754.81641 h -230 V 1971.3164 h 230 V 1362.752 c 0.17,-210.1161 168.094,-377.93755 378.252,-377.93755 207.492,0 377.573,163.62045 382.024,369.99025 v 616.5117 h 230 v -722.7109 c 0,-210.2626 164.221,-263.79105 374.484,-263.79105 210.264,0 376.6,167.98745 376.602,378.25005 h 0.402 v 608.2519 h 230 l 1.248,-608.2519 c 0,-334.5639 -273.687,-608.24809 -608.252,-608.24809 -222.829,0 -416.856,70.92519 -521.685,217.07421 -111.801,-132.52347 -278.895,-217.07617 -464.823,-217.07617 z"
       transform="scale(0.26458333)" />
    <path
       id="path11024"
       style="fill:#000000;fill-opacity:0.996215;stroke-width:230;stroke-linecap:square;stroke-linejoin:round;paint-order:stroke fill markers;stop-color:#000000"
       d="M 23658.857,754.81641 V 1971.3164 h 230 v -608.4082 c 0.09,-210.1892 168.043,-378.09375 378.254,-378.09375 210.263,0 378.246,167.98755 378.248,378.25005 v 0 608.2519 h 230 v -608.2519 c 0,-334.5637 -273.688,-608.24809 -608.252,-608.24809 -142.661,0 -274.23,49.79051 -378.254,132.8164 v -132.8164 z"
       transform="scale(0.26458333)" />
    <path
       id="path11538"
       style="fill:#000000;fill-opacity:0.996215;stroke-width:230;stroke-linecap:square;stroke-linejoin:round;paint-order:stroke fill markers;stop-color:#000000"
       d="m 25714.629,412.20898 v 230 h 998.916 v -230 z m -83.877,342.60743 V 1971.3164 h 230 v -608.4082 c 0.09,-210.1892 168.043,-378.09375 378.254,-378.09375 210.263,0 378.246,167.98755 378.248,378.25005 v 608.2519 h 230 v -608.2519 c 0,-334.5637 -273.688,-608.24809 -608.252,-608.24809 -142.661,0 -274.23,49.79054 -378.254,132.8164 v -132.8164 z"
       transform="scale(0.26458333)" />
    <path
       style="color:#000000;fill:#000000;fill-opacity:0.998096;fill-rule:evenodd;-inkscape-stroke:none"
       d="m 7458.753,199.71199 c -88.5205,0 -160.9336,72.4131 -160.9336,160.93359 0,88.52049 72.4131,160.93164 160.9336,160.93164 88.5205,0 160.9336,-72.41115 160.9336,-160.93164 0,-88.52049 -72.4131,-160.93359 -160.9336,-160.93359 z m 0,60.85351 c 55.6325,0 100.0781,44.44761 100.0781,100.08008 0,55.63248 -44.4456,100.07813 -100.0781,100.07813 -55.6325,0 -100.0801,-44.44565 -100.0801,-100.07813 0,-55.63247 44.4476,-100.08008 100.0801,-100.08008 z"
       id="path11656" />
    <path
       id="path11802"
       style="color:#000000;opacity:1;fill:#000000;fill-opacity:0.999913;fill-rule:evenodd;stroke-width:1;-inkscape-stroke:none"
       d="m 8003.6261,199.71199 c 88.5206,0 160.9339,72.4133 160.9339,160.9338 0,88.5205 -72.4133,160.9318 -160.9339,160.9318 -37.7455,0 -72.5562,-13.1733 -100.0791,-35.14 v 162.2214 h -60.8542 v -288.0132 c 0,-88.5205 72.4129,-160.9338 160.9333,-160.9338 z m 0,60.8536 c -55.6324,0 -100.0781,44.4478 -100.0781,100.0802 0,55.6325 44.4457,100.0782 100.0781,100.0782 55.6325,0 100.0803,-44.4457 100.0803,-100.0782 0,-55.6324 -44.4478,-100.0802 -100.0803,-100.0802 z m -160.8671,104.5616 c 0.013,0.4625 0.036,0.9223 0.053,1.3839 -0.017,-0.4615 -0.04,-0.9214 -0.053,-1.3839 z m 0.1865,4.4302 c 0.031,0.5635 0.071,1.1247 0.1075,1.6867 -0.037,-0.5619 -0.076,-1.1232 -0.1075,-1.6867 z m 0.3106,4.4504 c 0.048,0.5715 0.099,1.1416 0.153,1.7115 -0.054,-0.5698 -0.1054,-1.14 -0.153,-1.7115 z m 0.4315,4.4209 c 0.064,0.5728 0.1276,1.1452 0.1974,1.7162 -0.07,-0.5709 -0.1337,-1.1435 -0.1974,-1.7162 z m 0.5623,4.4726 c 0.073,0.5249 0.1431,1.0508 0.2216,1.5741 -0.079,-0.5233 -0.1483,-1.0493 -0.2216,-1.5741 z m 0.7363,4.7501 c 0.063,0.3679 0.1192,0.7378 0.1845,1.1049 -0.065,-0.3671 -0.1216,-0.737 -0.1845,-1.1049 z m 1.9518,9.6578 c 0.091,0.3878 0.1902,0.7724 0.2843,1.1591 -0.094,-0.3867 -0.193,-0.7713 -0.2843,-1.1591 z m 1.0517,4.2003 c 0.122,0.462 0.2501,0.9214 0.3762,1.3818 -0.1261,-0.4604 -0.2542,-0.9198 -0.3762,-1.3818 z m 1.1689,4.1832 c 0.1386,0.4719 0.2799,0.9426 0.4227,1.4128 -0.1428,-0.4701 -0.2842,-0.9409 -0.4227,-1.4128 z m 1.2996,4.2064 c 0.1407,0.4342 0.2806,0.8687 0.4248,1.3013 -0.1442,-0.4326 -0.2841,-0.8671 -0.4248,-1.3013 z m 1.4635,4.3078 c 0.1231,0.346 0.2425,0.6937 0.368,1.0387 -0.1254,-0.345 -0.2449,-0.6927 -0.368,-1.0387 z m 1.7813,4.7821 c 0.03,0.076 0.058,0.154 0.088,0.2305 -0.03,-0.076 -0.058,-0.1539 -0.088,-0.2305 z m 3.5228,8.2869 c 0.1105,0.2408 0.2253,0.4791 0.3369,0.7193 -0.1116,-0.2402 -0.2265,-0.4785 -0.3369,-0.7193 z m 1.8459,3.8814 c 0.1481,0.3014 0.2996,0.6008 0.4496,0.9012 -0.15,-0.3004 -0.3015,-0.5998 -0.4496,-0.9012 z m 1.9725,3.8757 c 0.1559,0.2966 0.3125,0.5928 0.4702,0.8883 -0.1576,-0.2955 -0.3144,-0.5917 -0.4702,-0.8883 z m 2.1285,3.9176 c 0.1321,0.2352 0.2626,0.4714 0.3959,0.7059 -0.1333,-0.2345 -0.2638,-0.4706 -0.3959,-0.7059 z m 2.3596,4.0685 c 0.062,0.1025 0.1216,0.2061 0.1834,0.3085 -0.062,-0.1024 -0.1219,-0.206 -0.1834,-0.3085 z m 7.4615,11.328 c 0.042,0.058 0.084,0.1152 0.1261,0.1731 -0.042,-0.058 -0.084,-0.1152 -0.1261,-0.1731 z m 2.5534,3.4432 c 0.1086,0.1427 0.2184,0.2845 0.3276,0.4268 -0.1091,-0.1423 -0.219,-0.2841 -0.3276,-0.4268 z m 2.6928,3.4385 c 0.1145,0.1423 0.2292,0.2845 0.3442,0.4264 -0.115,-0.1419 -0.2297,-0.2841 -0.3442,-0.4264 z m 2.8546,3.4494 c 0.083,0.097 0.1645,0.1955 0.2476,0.2925 -0.083,-0.097 -0.1648,-0.1952 -0.2476,-0.2925 z m 15.5882,15.9618 c 0.063,0.056 0.1262,0.1119 0.1892,0.168 -0.063,-0.056 -0.1263,-0.1118 -0.1892,-0.168 z m 3.3011,2.867 c 0.08,0.068 0.16,0.136 0.2403,0.2037 -0.08,-0.068 -0.1601,-0.1359 -0.2403,-0.2037 z"
       sodipodi:nodetypes="ssscccsssssssccccccccccccccccccccccccccccccccccccccccccccccccccccccccccccccccccccc" />
    <path
       id="path11833"
       style="color:#000000;opacity:1;fill:#000000;fill-opacity:0.999913;fill-rule:evenodd;stroke-width:3.77953;-inkscape-stroke:none"
       d="m 32613.547,754.81641 c -334.566,0 -608.254,273.68819 -608.254,608.25389 0,334.5657 273.688,608.2461 608.254,608.2461 142.66,0 274.228,-49.7887 378.252,-132.8125 v 187.6504 h -116.43 v 230.0019 h 116.43 v 195.4688 h 230 v -195.4688 h 94.924 v -230.0019 h -94.924 v -663.084 c 0,-334.5657 -273.687,-608.25389 -608.252,-608.25389 z m 0,229.99804 c 210.264,0 378.248,167.99165 378.248,378.25585 0,210.2646 -167.984,378.2481 -378.248,378.2481 -210.265,0 -378.256,-167.9835 -378.256,-378.2481 0,-210.2642 167.991,-378.25585 378.256,-378.25585 z"
       transform="scale(0.26458333)" />
    <path
       id="path12171"
       style="opacity:1;fill-opacity:0.999003;stroke-width:60.8542;stroke-linecap:square;stroke-linejoin:round;paint-order:stroke fill markers;stop-color:#000000"
       d="m 9012.7383,199.71184 v 160.9323 160.93332 h 60.8541 v -161.016 c 0.045,-55.59324 44.4746,-99.99597 100.0792,-99.99597 v -60.85365 c -37.7455,0 -72.5562,13.17349 -100.0792,35.14049 v -35.14049 z" />
    <path
       id="path13287"
       style="color:#000000;opacity:1;fill:#000000;fill-opacity:0.99997;fill-rule:evenodd;stroke:#000000;stroke-width:27.1938;stroke-miterlimit:4;stroke-dasharray:none;stroke-opacity:0.992148"
       d="m 9409.3841,521.57724 c 49.3436,0 89.7082,-38.24333 89.7082,-84.99333 0,-46.74998 -40.3646,-84.99199 -89.7082,-84.99199 -31.0108,0 -55.7856,-23.474 -55.7856,-52.85497 0,-29.38095 24.7748,-52.85386 55.7856,-52.85386 31.0103,0 55.7861,23.47418 55.7861,52.8547 h 33.9211 c 0,-46.74952 -40.3644,-84.99285 -89.7072,-84.99312 -49.3432,0 -89.7073,38.24233 -89.7073,84.99228 0,46.74996 40.3641,84.99334 89.7073,84.99334 v -2.5e-4 c 31.0111,0 55.7869,23.4729 55.7869,52.85387 0,29.38096 -24.7758,52.85493 -55.7869,52.85493 -31.0104,-2.7e-4 -55.7856,-23.47421 -55.7856,-52.85468 h -33.9209 c 0,46.74952 40.3633,84.99282 89.7065,84.99308 z" />
    <path
       id="path14417"
       style="opacity:1;fill-opacity:0.999003;stroke-width:230;stroke-linecap:square;stroke-linejoin:round;paint-order:stroke fill markers;stop-color:#000000"
       d="m 36930.479,274.50977 v 480.30664 h -140.555 v 230 h 140.555 v 378.24409 h -1.129 c 0,334.5638 273.682,608.2559 608.246,608.2559 v -230 c -209.452,0 -376.929,-166.7064 -378.217,-375.832 h 1.1 V 984.81641 h 140.554 v -230 h -140.554 V 274.50977 Z"
       transform="scale(0.26458333)" />
    <path
       id="path14537"
       style="color:#000000;fill:#000000;fill-opacity:1;fill-rule:evenodd;stroke-width:3.78;stroke-miterlimit:4;stroke-dasharray:none"
       d="m 38327.936,754.81641 v 608.25199 0 c 0,334.5637 273.69,608.248 608.254,608.248 334.563,0 608.252,-273.6843 608.256,-608.248 V 754.81641 h -230 v 608.25199 c 0,210.2626 -167.994,378.2519 -378.256,378.2519 -210.263,0 -378.246,-167.9893 -378.246,-378.2519 V 754.81641 Z"
       transform="scale(0.26458333)" />
    <path
       id="path17945"
       style="opacity:1;fill:#000000;fill-opacity:0.999003;stroke-width:60.8542;stroke-linecap:square;stroke-linejoin:round;paint-order:stroke fill markers;stop-color:#000000"
       d="m 10644.629,199.80618 135.801,321.73364 60.854,0.0374 125.211,-321.72285 h -60.854 l -89.42,221.54533 h -13.985 l -96.753,-221.59352 z"
       sodipodi:nodetypes="ccccccccc" />
    <path
       id="path26026"
       style="opacity:1;fill:#000000;fill-opacity:0.999003;stroke-width:230;stroke-linecap:square;stroke-linejoin:round;paint-order:stroke fill markers;stop-color:#000000"
       d="m 42212.594,754.63477 513.263,1216.00193 230,0.1406 362.903,-932.4589 393.599,932.5 230,0.1406 L 44415.598,755 h -230 l -337.965,837.3359 h -52.856 l -365.681,-837.51949 h -230 l -337.965,837.33789 h -52.856 l -365.681,-837.51953 z"
       transform="scale(0.26458333)" />
    <path
       id="path26191"
       style="color:#000000;fill:#000000;fill-opacity:1;fill-rule:evenodd;stroke-width:3.77953;-inkscape-stroke:none"
       d="m 45103.426,754.81641 v 608.25199 c 0,334.5636 273.692,608.248 608.256,608.248 142.656,0 274.222,-49.7874 378.246,-132.8105 v 4.8711 c 0,210.2626 -167.991,378.2519 -378.254,378.2519 v 229.9961 c 334.564,0 608.25,-273.6842 608.254,-608.248 v -479.6954 c 0,-0.2049 0,-0.4082 0,-0.6132 v -608.25199 0 h -229.992 v 0 608.88669 c -0.339,209.965 -168.2,377.6172 -378.246,377.6172 -210.263,0 -378.248,-167.9893 -378.248,-378.2519 V 754.81641 Z"
       transform="scale(0.26458333)" />
    <path
       id="path27300"
       style="opacity:1;fill-opacity:0.999003;stroke-width:60.8542;stroke-linecap:square;stroke-linejoin:round;paint-order:stroke fill markers;stop-color:#000000"
       d="m 12440.667,199.71184 v 60.85417 h 229.498 l -229.498,200.15728 v 60.85417 h 321.868 v -60.85417 h -229.499 l 229.499,-200.15728 v -60.85417 z" />
  </g>
</svg>
