<?xml version="1.0" encoding="UTF-8" standalone="no"?>
<!-- Created with Inkscape (http://www.inkscape.org/) -->

<svg
   width="89.049667mm"
   height="175.09299mm"
   viewBox="0 0 89.049667 175.09299"
   version="1.1"
   id="svg5"
   sodipodi:docname="L-system1.svg"
   inkscape:version="1.1.1 (1:1.1+202109281949+c3084ef5ed)"
   xmlns:inkscape="http://www.inkscape.org/namespaces/inkscape"
   xmlns:sodipodi="http://sodipodi.sourceforge.net/DTD/sodipodi-0.dtd"
   xmlns="http://www.w3.org/2000/svg"
   xmlns:svg="http://www.w3.org/2000/svg">
  <sodipodi:namedview
     id="namedview7"
     pagecolor="#ffffff"
     bordercolor="#111111"
     borderopacity="1"
     inkscape:pageshadow="0"
     inkscape:pageopacity="0"
     inkscape:pagecheckerboard="1"
     inkscape:document-units="mm"
     showgrid="false"
     inkscape:zoom="0.86552132"
     inkscape:cx="394.55989"
     inkscape:cy="367.98631"
     inkscape:window-width="1600"
     inkscape:window-height="818"
     inkscape:window-x="0"
     inkscape:window-y="28"
     inkscape:window-maximized="1"
     inkscape:current-layer="layer1" />
  <defs
     id="defs2" />
  <g
     inkscape:label="Capa 1"
     inkscape:groupmode="layer"
     id="layer1"
     transform="translate(-13.771188,87.019798)">
    <path
       style="fill:#008000;fill-opacity:1;stroke:#000000;stroke-width:0.261383;stroke-linecap:butt;stroke-linejoin:miter;stroke-opacity:1"
       d="m 14.420274,86.945597 3.462824,-5.541673 3.462819,-5.541673 v -6.534623 l 1.801186,-6.281482 3.462823,-5.541673 m -5.264009,18.357778 4.856169,-4.372516 3.462823,-5.541673 1.801187,-6.281481 m -10.120179,16.19567 3.462823,-5.541673 3.462819,-5.541673 v -6.534623 l 1.801186,-6.281481 3.462823,-5.541673 m -5.264009,18.357777 4.856169,-4.372516 3.462824,-5.541672 1.801186,-6.281482 M 28.271559,64.778905 V 58.244282 51.709663 L 24.80874,46.16799 23.007554,39.886508 v -6.534619 m 5.264005,18.357774 1.801186,-6.281482 V 38.893562 L 28.271559,32.61208 m 0,19.097583 1.801186,-6.281482 1.801187,-6.281481 -1.801187,-6.281482 v -6.534619 l 1.801187,-6.281482 m 0,19.097583 3.462823,-5.541673 1.801184,-6.281482 v -6.534619 m -5.264007,18.357774 3.462823,-5.541673 3.462819,-5.541673 v -6.534619 l 1.801186,-6.281482 3.462823,-5.5416723 m -5.264009,18.3577733 4.856169,-4.372512 3.462823,-5.541673 1.801187,-6.281482 m -20.648194,52.911218 4.856169,-4.372516 4.856174,-4.372516 1.801182,-6.281481 3.462823,-5.541673 4.85617,-4.372512 m -10.120175,16.195666 5.873276,-2.864586 4.856169,-4.372516 3.462823,-5.541673 M 37.983902,56.033873 41.446721,50.4922 44.909544,44.950528 v -6.53462 l 1.801186,-6.281481 3.462819,-5.541673 m -5.264005,18.357774 4.856169,-4.372513 3.46282,-5.541672 1.801186,-6.281482 M 44.909544,44.950528 46.71073,38.669046 48.511913,32.387568 46.71073,26.106087 v -6.53462 l 1.801183,-6.281481 m 0,19.097582 3.462823,-5.541672 1.801186,-6.281482 v -6.534619 m -25.504363,50.74911 3.462823,-5.541672 3.462823,-5.541673 v -6.534623 l 1.801183,-6.281482 3.462823,-5.541673 m -5.264006,18.357778 4.85617,-4.372516 3.462819,-5.541673 1.801186,-6.281482 m -10.120175,16.195671 3.462819,-5.541673 3.462824,-5.541673 v -6.534623 l 1.801186,-6.281482 3.462819,-5.541672 m -5.264005,18.357777 4.856169,-4.372516 3.462819,-5.541673 1.801186,-6.281481 m -10.120174,16.19567 v -6.534623 -6.534619 l -3.462824,-5.541673 -1.801186,-6.281482 v -6.534619 m 5.26401,18.357774 1.801186,-6.281482 v -6.534619 l -1.801186,-6.281482 m 0,19.097583 1.801186,-6.281482 1.801182,-6.281482 -1.801182,-6.281481 V 4.1639079 l 1.801182,-6.2814808 m 0,19.0975809 3.462823,-5.541672 1.801186,-6.28148 v -6.5346209 m -5.264009,18.3577729 3.462823,-5.541672 3.462823,-5.541672 v -6.53462102 l 1.801183,-6.28148068 3.462823,-5.5416733 m -5.264006,18.357775 4.85617,-4.372515 3.462819,-5.5416728 1.801186,-6.2814802 m -20.648189,52.911218 4.856169,-4.372516 4.856169,-4.372516 1.801187,-6.281482 3.462819,-5.541672 4.856169,-4.372513 m -10.120175,16.195667 5.873276,-2.864587 4.856174,-4.372516 3.462819,-5.541672 m -14.192269,12.778775 3.462819,-5.541673 3.462824,-5.541673 V 16.249217 L 60.562015,9.9677352 64.024834,4.426063 m -5.264005,18.357773 4.856169,-4.372512 3.462823,-5.541673 1.801186,-6.281482 m -10.120178,16.195667 1.801186,-6.281481 1.801186,-6.281478 -1.801186,-6.2814818 v -6.534621 l 1.801186,-6.2814808 m 0,19.0975836 3.462819,-5.5416739 1.801186,-6.2814807 v -6.534621 M 42.122848,42.612214 v -6.534623 -6.534619 l -3.462824,-5.541673 -1.801186,-6.281482 v -6.534619 m 5.26401,18.357774 1.801186,-6.281482 v -6.534619 l -1.801186,-6.281482 m 0,19.097583 V 23.008348 16.473729 L 38.660024,10.932056 36.858838,4.6505757 v -6.5346209 m 5.26401,18.3577742 1.801186,-6.281482 V 3.6576276 l -1.801186,-6.2814808 m 0,19.0975822 -3.462824,-5.541673 -3.462819,-5.5416723 -5.87328,-2.8645893 -4.856169,-4.3725149 -3.462823,-5.5416728 M 35.197205,5.3903837 33.396019,-0.89109716 29.933196,-6.4327699 25.077027,-10.805283 m 10.120178,16.1956667 -1.801186,-6.28148086 -1.801186,-6.28148074 -4.85617,-4.3725141 -3.462823,-5.541673 -1.801186,-6.281481 m 10.120179,16.1956681 v -6.5346211 l -1.801186,-6.281482 -3.462824,-5.541673 m 5.26401,18.3577761 v -6.5346211 -6.53462 l -3.462823,-5.541672 -1.801187,-6.281482 v -6.534619 m 5.26401,18.357773 1.801186,-6.281481 v -6.534619 l -1.801186,-6.281482 m 10.528015,55.81313 1.801186,-6.281482 1.801182,-6.2814793 -1.801182,-6.2814808 V -8.905334 l 1.801182,-6.281479 m 0,19.0975807 3.462823,-5.5416728 1.801186,-6.2814808 V -14.447008 M 45.725216,3.9107677 v -6.5346209 -6.5346209 l -3.462819,-5.5416719 -1.801186,-6.281481 v -6.53462 m 5.264005,18.3577729 1.801186,-6.2814809 v -6.534619 l -1.801186,-6.281481 m 0,19.0975809 -1.801182,-6.2814809 -1.801186,-6.281481 -4.85617,-4.372516 -3.462823,-5.541672 -1.801186,-6.281479 m 10.120179,16.195667 v -6.534619 l -1.801187,-6.281482 -3.462823,-5.541673 m 5.26401,56.552939 1.801186,-6.281482 1.801182,-6.2814793 -1.801182,-6.2814808 V -8.905334 l 1.801182,-6.281479 m 0,19.0975807 3.462823,-5.5416728 1.801186,-6.2814808 v -6.5346221 m -5.264009,18.3577757 1.801186,-6.2814808 1.801187,-6.2814808 -1.801187,-6.2814811 v -6.534619 l 1.801187,-6.281482 m 0,19.0975821 3.462823,-5.5416721 1.801186,-6.281482 v -6.534619 m -5.264009,18.3577731 -1.801187,-6.2814811 -1.801186,-6.281482 -4.856169,-4.372512 -3.462819,-5.541673 -1.801187,-6.281481 m 10.120175,16.195666 v -6.534619 l -1.801182,-6.281482 -3.462823,-5.541672 m 5.264005,18.357773 v -6.534619 -6.534619 l -3.462819,-5.541673 -1.801186,-6.281482 v -6.534623 m 5.264005,18.357778 1.801186,-6.281482 V -47.1005 l -1.801186,-6.281478 m 0,19.097583 1.801186,-6.281482 1.801187,-6.281481 -1.801187,-6.281482 v -6.534619 l 1.801187,-6.281482 m 0,19.097583 3.462823,-5.541673 1.801186,-6.281482 v -6.534619 m -5.264009,56.5529381 3.462823,-5.5416721 3.462819,-5.541673 v -6.534619 l 1.801186,-6.281482 3.462823,-5.541673 m -5.264009,18.357774 4.856169,-4.372516 3.462823,-5.541673 1.801187,-6.281482 m -10.120179,16.195671 1.801186,-6.281482 1.801186,-6.281481 -1.801186,-6.281478 v -6.534623 l 1.801186,-6.281482 m 0,19.097583 3.462824,-5.541673 1.801182,-6.281478 v -6.534623 m -5.264006,18.357774 v -6.53462 -6.534619 l -3.462823,-5.541673 -1.801182,-6.281481 v -6.534624 m 5.264005,18.357778 1.801187,-6.281482 v -6.534623 l -1.801187,-6.281477 m -10.528014,55.8131291 3.462823,-5.5416721 3.462819,-5.541673 v -6.534619 l 1.801186,-6.281482 3.462823,-5.541673 m -5.264009,18.357774 4.856169,-4.372516 3.462823,-5.541673 1.801187,-6.281482 m -10.120179,16.195671 3.462823,-5.541673 3.462819,-5.541673 v -6.534619 l 1.801186,-6.281482 3.462824,-5.541672 m -5.26401,18.357773 4.856173,-4.372516 3.46282,-5.541673 1.801186,-6.28148 m -10.120179,16.195669 v -6.534619 -6.534623 l -3.462819,-5.541673 -1.801186,-6.281482 v -6.534619 m 5.264005,18.357774 1.801186,-6.281482 v -6.534619 l -1.801186,-6.281482 m 0,19.097583 1.801186,-6.281482 1.801187,-6.281478 -1.801187,-6.281481 v -6.534623 l 1.801187,-6.281478 m 0,19.097582 3.462823,-5.541672 1.801186,-6.281482 v -6.534623 m -5.264009,18.357777 3.462823,-5.541672 3.462819,-5.541673 v -6.534623 l 1.801186,-6.281482 3.462823,-5.541673 m -5.264009,18.357778 4.856169,-4.372516 3.462823,-5.541673 1.801187,-6.281482 m -20.648194,52.911218 4.856173,-4.372516 4.85617,-4.372512 1.801182,-6.281482 3.462823,-5.541672 4.85617,-4.372517 m -10.120175,16.195671 5.873276,-2.86459 4.856169,-4.372517 3.462824,-5.541672 m -14.192269,12.778779 3.462819,-5.541673 3.462823,-5.541673 v -6.534623 l 1.801186,-6.281482 3.46282,-5.541672 m -5.264006,18.357777 4.85617,-4.372516 3.462819,-5.541673 1.801186,-6.281481 m -10.120175,16.19567 1.801186,-6.281481 1.801183,-6.281482 -1.801183,-6.281481 v -6.53462 l 1.801183,-6.281481 m 0,19.097582 3.462823,-5.541673 1.801186,-6.281481 v -6.534619 m -46.560388,124.180209 4.856169,-4.372516 4.856169,-4.372516 1.801187,-6.281482 3.462819,-5.541672 4.856169,-4.372513 m -10.120175,16.195667 5.873276,-2.864587 4.856174,-4.372516 3.462819,-5.541672 m -14.192269,12.778775 4.85617,-4.372512 4.856169,-4.372516 1.801186,-6.281482 3.462819,-5.541673 4.856174,-4.3725139 m -10.120179,16.1956689 5.87328,-2.864591 4.85617,-4.372512 3.462819,-5.541673 M 61.547525,25.122154 63.348711,18.840672 65.149898,12.55919 63.348711,6.2777112 v -6.53462092 l 1.801187,-6.28148078 m 0,19.0975805 3.462819,-5.5416708 1.801186,-6.28148083 V -5.7985825 M 65.149898,12.55919 68.612717,7.0175192 72.07554,1.4758464 v -6.5346209 l 1.801186,-6.2814815 3.462819,-5.541673 m -5.264005,18.3577754 4.856169,-4.3725149 3.462823,-5.5416728 1.801183,-6.2814807 M 72.07554,1.4758464 l 4.856169,-4.3725149 4.85617,-4.372515 1.801186,-6.2814815 3.462819,-5.541673 4.856173,-4.372512 m -10.120178,16.1956665 5.87328,-2.8645905 4.856169,-4.372512 3.462819,-5.541673 m -34.432622,45.170113 5.87328,-2.864591 5.873276,-2.864586 3.462823,-5.541673 4.85617,-4.3725167 5.873276,-2.8645893 m -14.192269,12.778779 6.435345,-1.134727 5.87328,-2.86459 4.85617,-4.372512 m -17.164795,8.371829 4.85617,-4.372516 4.856169,-4.372517 1.801186,-6.2814796 3.462823,-5.5416728 4.85617,-4.3725146 M 83.00642,10.647944 88.8797,7.7833559 93.73587,3.4108413 97.198693,-2.1308315 M 83.00642,10.647944 86.469243,5.1062723 89.932062,-0.43540037 V -6.9700214 l 1.801187,-6.2814806 3.462823,-5.541673 m -5.26401,18.35777463 4.856174,-4.37251463 3.462819,-5.541671 1.801185,-6.281482 m -38.504715,41.753222 3.462823,-5.541673 3.462819,-5.541673 V 7.5041871 l 1.801187,-6.2814808 3.462823,-5.5416728 m -5.26401,18.3577745 4.85617,-4.3725149 3.462823,-5.5416728 1.801186,-6.2814808 M 68.473167,14.038808 71.93599,8.4971348 75.39881,2.955462 v -6.5346205 l 1.801186,-6.2814808 3.462823,-5.5416717 m -5.264009,18.357773 4.856169,-4.3725145 3.462823,-5.5416728 1.801186,-6.2814807 M 75.39881,2.955462 V -3.5791585 -10.11378 l -3.46282,-5.541673 -1.801186,-6.281482 v -6.534619 m 5.264006,18.357774 1.801186,-6.281482 v -6.534619 l -1.801186,-6.281482 m 0,19.097583 1.801186,-6.281482 1.801186,-6.281477 -1.801186,-6.281482 v -6.534623 l 1.801186,-6.281478 m 0,19.097583 3.462823,-5.541673 1.801183,-6.281482 v -6.534623 m -5.264006,18.357778 3.462823,-5.541673 3.462819,-5.541673 v -6.534623 l 1.801187,-6.281482 3.462823,-5.541673 m -5.26401,18.357778 4.85617,-4.372516 3.462823,-5.541673 1.801186,-6.281482 M 75.39881,2.955462 l 4.856169,-4.3725145 4.856173,-4.372515 1.801183,-6.2814795 3.462823,-5.541673 4.856169,-4.372516 m -10.120175,16.1956685 5.873276,-2.8645893 4.85617,-4.3725162 3.462823,-5.541672 m -14.192269,12.7787775 3.462819,-5.5416715 3.462824,-5.541673 v -6.534623 l 1.801186,-6.281481 3.462819,-5.541673 m -5.264005,18.357777 4.856169,-4.372516 3.462816,-5.541672 1.80119,-6.281482 m -10.120175,16.19567 1.801186,-6.281481 1.801182,-6.281482 -1.801182,-6.281481 v -6.53462 l 1.801182,-6.281481 m 0,19.097582 3.462823,-5.541672 1.801194,-6.281482 v -6.534619 m -25.50437,50.74911 1.801186,-6.2814804 1.801186,-6.2814808 -1.801186,-6.2814788 v -6.534624 l 1.801186,-6.281481 m 0,19.0975838 3.462823,-5.5416748 1.801183,-6.281477 v -6.534623 m -5.264006,18.3577748 1.801186,-6.2814788 1.801187,-6.281482 -1.801187,-6.281482 v -6.534619 l 1.801187,-6.281481 m 0,19.097582 3.462819,-5.541673 1.801186,-6.281481 v -6.53462 m -5.264005,18.357774 -1.801187,-6.281482 -1.801186,-6.281481 -4.856169,-4.372512 -3.462823,-5.541673 -1.801183,-6.281482 m 10.120175,16.195667 v -6.534619 l -1.801186,-6.281482 -3.462819,-5.541673 m 5.264005,18.357774 v -6.534619 -6.534624 l -3.462823,-5.541673 -1.801182,-6.281477 v -6.534624 m 5.264005,18.357774 1.801186,-6.281477 v -6.534624 l -1.801186,-6.281477 m 0,19.097578 1.801186,-6.281477 1.801187,-6.281482 -1.801187,-6.281482 v -6.534619 l 1.801187,-6.281482 m 0,19.097583 3.462819,-5.541673 1.801186,-6.281481 v -6.53462 m -5.264005,56.552939 3.462819,-5.541673 3.462823,-5.541673 v -6.534623 l 1.801186,-6.281477 3.462819,-5.541673 m -5.264005,18.357773 4.856169,-4.372516 3.462823,-5.541673 1.801177,-6.281481 m -10.120169,16.19567 1.801186,-6.281481 1.801186,-6.281482 -1.801186,-6.281481 v -6.53462 l 1.801186,-6.281481 m 0,19.097582 3.46282,-5.541673 1.801186,-6.281481 v -6.534619 m -5.264006,18.357773 v -6.534619 -6.534623 l -3.462823,-5.541673 -1.801186,-6.281478 v -6.534623 m 5.264009,18.357774 1.801183,-6.281478 v -6.534623 l -1.801183,-6.281478"
       id="path15" />
  </g>
</svg>
